<svg width="142" height="33" viewBox="0 0 142 33" fill="none" xmlns="http://www.w3.org/2000/svg">
<path d="M29.3827 8.19193C28.2809 8.72649 27.1178 9.06058 25.8935 9.26104C27.1178 8.45921 28.0972 7.18964 28.5257 5.65279C27.3627 6.38781 26.0772 6.92236 24.6692 7.25646C23.5674 5.98689 21.9758 5.18506 20.2618 5.18506C16.9563 5.18506 14.2629 8.12511 14.2629 11.7334C14.2629 12.2679 14.3241 12.7357 14.4465 13.2034C9.48817 12.9361 5.01955 10.3302 2.02006 6.32099C1.53035 7.32328 1.22428 8.39239 1.22428 9.59514C1.22428 11.867 2.26492 13.8716 3.9177 15.0743C2.93827 15.0075 2.02006 14.7402 1.16307 14.2725V14.3393C1.16307 17.5466 3.24434 20.2194 5.99897 20.8208C5.50926 20.9544 4.95833 21.0213 4.40741 21.0213C4.04012 21.0213 3.61163 20.9544 3.24434 20.8876C4.04012 23.4936 6.24383 25.4313 8.87603 25.4313C6.79475 27.1686 4.22377 28.2378 1.40792 28.2378C0.91821 28.2378 0.428498 28.2378 0 28.1709C2.69342 30.0419 5.81533 31.111 9.24331 31.111C20.323 31.111 26.3832 21.0881 26.3832 12.4016C26.3832 12.1343 26.3832 11.8002 26.3832 11.5329C27.5463 10.6642 28.5869 9.52832 29.3827 8.19193Z" fill="#FDFDFE"/>
<path d="M86.2223 16.5188C86.2209 7.73043 79.382 0.481332 70.6597 0.0228518C61.9374 -0.435628 54.385 6.057 53.4736 14.7974C52.5622 23.5378 58.6107 31.4663 67.2376 32.8395V21.2944H63.0692V16.5188H67.2376V12.879C67.2376 8.73841 69.6892 6.45128 73.439 6.45128C74.6704 6.46847 75.899 6.57614 77.1148 6.77344V10.8397H75.0439C74.3291 10.7442 73.6099 10.9809 73.0894 11.4831C72.569 11.9853 72.3037 12.6985 72.3686 13.4211V16.5188H76.9229L76.1943 21.2944H72.3686V32.8395C80.348 31.5694 86.2236 24.6475 86.2223 16.5188Z" fill="#FDFDFE"/>
<path fill-rule="evenodd" clip-rule="evenodd" d="M119.364 1.82185C121.024 1.74666 121.553 1.72852 125.778 1.72852C130.002 1.72852 130.532 1.74666 132.191 1.82185C134.72 1.93722 136.94 2.55685 138.723 4.33926C140.506 6.12231 141.125 8.34287 141.24 10.8706C141.315 12.5299 141.333 13.0594 141.333 17.2841C141.333 21.5087 141.315 22.0382 141.24 23.6975C141.125 26.2266 140.505 28.4465 138.723 30.2289C136.939 32.0119 134.718 32.6309 132.191 32.7463C130.532 32.8215 130.002 32.8396 125.778 32.8396C121.553 32.8396 121.024 32.8215 119.364 32.7463C116.835 32.6309 114.615 32.0113 112.833 30.2289C111.05 28.4458 110.431 26.2253 110.316 23.6975C110.24 22.0382 110.222 21.5087 110.222 17.2841C110.222 13.0594 110.24 12.5299 110.316 10.8706C110.431 8.34157 111.051 6.12166 112.833 4.33926C114.616 2.5562 116.837 1.93722 119.364 1.82185ZM132.064 4.62204C130.423 4.54685 129.931 4.5313 125.778 4.5313C121.625 4.5313 121.133 4.5475 119.492 4.62204C117.722 4.70306 116.079 5.05759 114.815 6.32148C113.551 7.58537 113.197 9.22843 113.116 10.9985C113.041 12.639 113.025 13.1309 113.025 17.2843C113.025 21.4376 113.041 21.9295 113.116 23.57C113.197 25.3401 113.551 26.9832 114.815 28.247C116.079 29.5109 117.722 29.8655 119.492 29.9465C121.132 30.0217 121.624 30.0372 125.778 30.0372C129.932 30.0372 130.424 30.021 132.064 29.9465C133.834 29.8655 135.477 29.5109 136.741 28.247C138.005 26.9832 138.359 25.3401 138.44 23.57C138.515 21.9295 138.531 21.4376 138.531 17.2843C138.531 13.1309 138.515 12.639 138.44 10.9985C138.359 9.22843 138.005 7.58537 136.741 6.32148C135.477 5.05759 133.834 4.70306 132.064 4.62204Z" fill="#FDFDFE"/>
<path fill-rule="evenodd" clip-rule="evenodd" d="M118.708 17.9912C118.708 13.6958 122.189 10.2134 126.485 10.2134C130.781 10.2134 134.263 13.6952 134.263 17.9912C134.263 22.2871 130.781 25.7689 126.485 25.7689C122.189 25.7689 118.708 22.2865 118.708 17.9912ZM121.437 17.9917C121.437 20.78 123.697 23.0406 126.485 23.0406C129.274 23.0406 131.534 20.78 131.534 17.9917C131.534 15.2035 129.274 12.9429 126.485 12.9429C123.697 12.9429 121.437 15.2035 121.437 17.9917Z" fill="#FDFDFE"/>
<circle cx="133.556" cy="9.50695" r="2.12121" fill="#FDFDFE"/>
</svg>
