<svg width="273" height="49" viewBox="0 0 273 49" fill="none" xmlns="http://www.w3.org/2000/svg">
<g clip-path="url(#clip0_425_180)">
<path d="M48.6621 24.8682C48.6621 11.6133 37.917 0.868164 24.6621 0.868164C11.4073 0.868164 0.662109 11.6133 0.662109 24.8682C0.662109 36.8471 9.43852 46.7761 20.9121 48.5766V31.8057H14.8184V24.8682H20.9121V19.5807C20.9121 13.5657 24.4952 10.2432 29.9773 10.2432C32.6023 10.2432 35.3496 10.7119 35.3496 10.7119V16.6182H32.3234C29.3421 16.6182 28.4121 18.4683 28.4121 20.3682V24.8682H35.0684L34.0043 31.8057H28.4121V48.5766C39.8857 46.7761 48.6621 36.8471 48.6621 24.8682Z" fill="#00024B"/>
</g>
<g clip-path="url(#clip1_425_180)">
<path d="M136.662 5.19004C143.075 5.19004 143.834 5.21816 146.356 5.33066C148.7 5.43379 149.965 5.82754 150.809 6.15566C151.925 6.58691 152.731 7.11191 153.565 7.94629C154.409 8.79004 154.925 9.58691 155.356 10.7025C155.684 11.5463 156.078 12.8213 156.181 15.1557C156.293 17.6869 156.321 18.4463 156.321 24.8494C156.321 31.2619 156.293 32.0213 156.181 34.5432C156.078 36.8869 155.684 38.1525 155.356 38.9963C154.925 40.1119 154.4 40.9182 153.565 41.7525C152.721 42.5963 151.925 43.1119 150.809 43.5432C149.965 43.8713 148.69 44.265 146.356 44.3682C143.825 44.4807 143.065 44.5088 136.662 44.5088C130.25 44.5088 129.49 44.4807 126.968 44.3682C124.625 44.265 123.359 43.8713 122.515 43.5432C121.4 43.1119 120.593 42.5869 119.759 41.7525C118.915 40.9088 118.4 40.1119 117.968 38.9963C117.64 38.1525 117.246 36.8775 117.143 34.5432C117.031 32.0119 117.003 31.2525 117.003 24.8494C117.003 18.4369 117.031 17.6775 117.143 15.1557C117.246 12.8119 117.64 11.5463 117.968 10.7025C118.4 9.58691 118.925 8.78066 119.759 7.94629C120.603 7.10254 121.4 6.58691 122.515 6.15566C123.359 5.82754 124.634 5.43379 126.968 5.33066C129.49 5.21816 130.25 5.19004 136.662 5.19004ZM136.662 0.868164C130.146 0.868164 129.331 0.896289 126.771 1.00879C124.221 1.12129 122.468 1.53379 120.95 2.12441C119.365 2.74316 118.025 3.55879 116.693 4.89941C115.353 6.23066 114.537 7.57129 113.918 9.14629C113.328 10.6744 112.915 12.4182 112.803 14.9682C112.69 17.5369 112.662 18.3525 112.662 24.8682C112.662 31.3838 112.69 32.1994 112.803 34.7588C112.915 37.3088 113.328 39.0619 113.918 40.5807C114.537 42.165 115.353 43.5057 116.693 44.8369C118.025 46.1682 119.365 46.9932 120.94 47.6025C122.468 48.1932 124.212 48.6057 126.762 48.7182C129.321 48.8307 130.137 48.8588 136.653 48.8588C143.168 48.8588 143.984 48.8307 146.543 48.7182C149.093 48.6057 150.846 48.1932 152.365 47.6025C153.94 46.9932 155.281 46.1682 156.612 44.8369C157.943 43.5057 158.768 42.165 159.378 40.59C159.968 39.0619 160.381 37.3182 160.493 34.7682C160.606 32.2088 160.634 31.3932 160.634 24.8775C160.634 18.3619 160.606 17.5463 160.493 14.9869C160.381 12.4369 159.968 10.6838 159.378 9.16504C158.787 7.57129 157.971 6.23066 156.631 4.89941C155.3 3.56816 153.959 2.74316 152.384 2.13379C150.856 1.54316 149.112 1.13066 146.562 1.01816C143.993 0.896289 143.178 0.868164 136.662 0.868164Z" fill="#00024B"/>
<path d="M136.662 12.54C129.856 12.54 124.334 18.0619 124.334 24.8682C124.334 31.6744 129.856 37.1963 136.662 37.1963C143.468 37.1963 148.99 31.6744 148.99 24.8682C148.99 18.0619 143.468 12.54 136.662 12.54ZM136.662 32.865C132.246 32.865 128.665 29.2838 128.665 24.8682C128.665 20.4525 132.246 16.8713 136.662 16.8713C141.078 16.8713 144.659 20.4525 144.659 24.8682C144.659 29.2838 141.078 32.865 136.662 32.865Z" fill="#00024B"/>
<path d="M152.356 12.0524C152.356 13.6462 151.062 14.9306 149.478 14.9306C147.884 14.9306 146.6 13.6368 146.6 12.0524C146.6 10.4587 147.893 9.17432 149.478 9.17432C151.062 9.17432 152.356 10.4681 152.356 12.0524Z" fill="#00024B"/>
</g>
<g clip-path="url(#clip2_425_180)">
<path d="M239.762 44.3681C257.871 44.3681 267.779 29.3616 267.779 16.3519C267.779 15.93 267.769 15.4988 267.751 15.0769C269.678 13.6831 271.341 11.9567 272.662 9.97876C270.867 10.7774 268.961 11.2989 267.01 11.5256C269.065 10.294 270.603 8.35911 271.34 6.0797C269.407 7.22528 267.293 8.03339 265.089 8.46939C263.604 6.89129 261.64 5.8464 259.501 5.49627C257.363 5.14614 255.168 5.51026 253.258 6.53236C251.347 7.55445 249.826 9.17758 248.93 11.1508C248.034 13.124 247.813 15.3374 248.301 17.4488C244.387 17.2523 240.558 16.2356 237.062 14.4644C233.566 12.6931 230.481 10.207 228.008 7.1672C226.751 9.33465 226.366 11.8995 226.932 14.3403C227.498 16.7812 228.972 18.9151 231.055 20.3081C229.491 20.2585 227.962 19.8375 226.593 19.08V19.2019C226.592 21.4765 227.378 23.6813 228.819 25.4417C230.259 27.2021 232.265 28.4093 234.495 28.8581C233.046 29.2544 231.526 29.3122 230.052 29.0269C230.681 30.983 231.905 32.6939 233.554 33.9208C235.202 35.1477 237.192 35.8294 239.247 35.8706C235.759 38.6104 231.45 40.0964 227.015 40.0894C226.229 40.0882 225.443 40.04 224.662 39.945C229.168 42.8357 234.409 44.3709 239.762 44.3681Z" fill="#00024B"/>
</g>
<defs>
<clipPath id="clip0_425_180">
<rect width="48" height="48" fill="white" transform="translate(0.662109 0.868164)"/>
</clipPath>
<clipPath id="clip1_425_180">
<rect width="48" height="48" fill="white" transform="translate(112.662 0.868164)"/>
</clipPath>
<clipPath id="clip2_425_180">
<rect width="48" height="48" fill="white" transform="translate(224.662 0.868164)"/>
</clipPath>
</defs>
</svg>
