<svg width="201" height="201" viewBox="0 0 201 201" fill="none" xmlns="http://www.w3.org/2000/svg">
<g filter="url(#filter0_d_418_122)">
<rect x="4" width="193" height="193" rx="96.5" fill="#FDFDFE"/>
</g>
<g clip-path="url(#clip0_418_122)">
<path fill-rule="evenodd" clip-rule="evenodd" d="M66.514 98.3053C66.514 98.3053 62.9937 96.7603 65.2468 95.0737C65.2468 95.0737 80.1037 92.4742 92.2868 96.4088C92.2868 96.4088 97.6397 99.0791 93.6961 100.343C89.7524 101.608 73.6994 101.959 66.5167 98.3053" fill="#39B54A"/>
<path fill-rule="evenodd" clip-rule="evenodd" d="M62.9226 78.9129C64.5421 77.2262 70.7388 74.9782 79.8223 79.4742C79.8223 79.4742 91.7924 86.2889 96.0174 92.9619C96.0174 92.9619 96.2987 95.2099 94.6082 94.1554C92.9176 93.1009 87.8434 89.169 80.9475 87.902C77.5036 87.2698 59.2029 82.7793 62.9199 78.9101" fill="#39B54A"/>
<path fill-rule="evenodd" clip-rule="evenodd" d="M72.2873 54.466C72.2873 54.466 71.722 62.0545 75.6656 65.2153C80.7427 71.2344 98.4917 89.5014 98.9751 92.9646C98.9751 92.9646 100.737 94.7221 100.737 91.4196C100.737 88.1172 101.299 77.7902 89.8234 66.97C78.3448 56.1526 75.043 55.3461 74.3329 54.1145C73.6228 52.8829 72.2218 53.763 72.2901 54.466" fill="#39B54A"/>
<path fill-rule="evenodd" clip-rule="evenodd" d="M101.299 42.6622C101.299 42.6622 95.3157 49.4769 99.0463 59.6649C99.0463 59.6649 104.186 71.1854 105.595 77.1581C107.002 83.1309 107.848 91.6322 107.215 95.0736C106.581 98.5151 109.61 97.1118 109.82 94.7221C109.82 94.7221 115.736 83.2725 115.173 69.3625C114.611 55.4524 113.201 47.4442 104.189 42.6649C104.189 42.6649 102.43 41.2344 101.299 42.6622Z" fill="#2E3192"/>
<path d="M101.299 42.6622C101.299 42.6622 95.3157 49.4769 99.0463 59.6649C99.0463 59.6649 104.186 71.1854 105.595 77.1581C107.002 83.1309 107.848 91.6322 107.215 95.0736C106.581 98.5151 109.61 97.1118 109.82 94.7221C109.82 94.7221 115.736 83.2725 115.173 69.3625C114.611 55.4524 113.201 47.4442 104.189 42.6649C104.189 42.6649 102.43 41.2344 101.299 42.6622Z" stroke="#231F20" stroke-width="0.22" stroke-miterlimit="2.61"/>
<path fill-rule="evenodd" clip-rule="evenodd" d="M112.354 95.7764C112.354 95.7764 117.705 89.4521 119.395 67.2532C119.395 67.2532 120.239 58.681 127.703 53.7655C127.703 53.7655 130.098 52.7818 130.098 55.3104C130.098 57.8391 132.493 71.7519 123.057 84.8173C113.622 97.8854 113.198 96.9017 113.198 96.9017C113.198 96.9017 111.789 97.463 112.354 95.7764Z" fill="#2E3192"/>
<path d="M112.354 95.7764C112.354 95.7764 117.705 89.4521 119.395 67.2532C119.395 67.2532 120.239 58.681 127.703 53.7655C127.703 53.7655 130.098 52.7818 130.098 55.3104C130.098 57.8391 132.493 71.7519 123.057 84.8173C113.622 97.8854 113.198 96.9017 113.198 96.9017C113.198 96.9017 111.789 97.463 112.354 95.7764Z" stroke="#231F20" stroke-width="0.22" stroke-miterlimit="2.61"/>
<path fill-rule="evenodd" clip-rule="evenodd" d="M117.355 96.7604C117.355 96.7604 124.609 90.0138 128.763 83.9021C132.917 77.7904 139.818 74.0656 141.861 73.785C143.904 73.5043 146.438 72.7305 144.676 76.1038C142.915 79.4771 137.636 88.3272 133.692 90.646C129.749 92.9648 126.652 95.2836 123.833 96.0547C121.017 96.8286 115.875 99.428 117.355 96.7577V96.7604Z" fill="#2E3192"/>
<path d="M117.355 96.7604C117.355 96.7604 124.609 90.0138 128.763 83.9021C132.917 77.7904 139.818 74.0656 141.861 73.785C143.904 73.5043 146.438 72.7305 144.676 76.1038C142.915 79.4771 137.636 88.3272 133.692 90.646C129.749 92.9648 126.652 95.2836 123.833 96.0547C121.017 96.8286 115.875 99.428 117.355 96.7577V96.7604Z" stroke="#231F20" stroke-width="0.22" stroke-miterlimit="2.61"/>
<path fill-rule="evenodd" clip-rule="evenodd" d="M57.4363 91.7709C57.4363 91.7709 65.3235 101.185 72.3642 103.994C79.4048 106.804 89.6162 109.896 103.768 105.891C103.768 105.891 117.781 99.7082 124.33 98.1632C130.88 96.6183 138.483 95.4221 145.455 97.7409C145.455 97.7409 156.863 102.169 160.312 107.087C160.312 107.087 162.284 111.583 159.397 110.67C156.51 109.757 148.623 103.504 142.216 103.504C135.809 103.504 131.232 103.433 126.726 105.12C122.219 106.806 108.632 113.831 104.618 114.676C104.618 114.676 81.3138 124.302 63.8488 106.596C63.8488 106.596 57.0867 98.7273 55.1176 93.6701C55.1176 93.6701 54.3447 90.4384 57.4363 91.7709Z" fill="#2E3192"/>
<path d="M57.4363 91.7709C57.4363 91.7709 65.3235 101.185 72.3642 103.994C79.4048 106.804 89.6162 109.896 103.768 105.891C103.768 105.891 117.781 99.7082 124.33 98.1632C130.879 96.6183 138.483 95.4221 145.455 97.7409C145.455 97.7409 156.863 102.169 160.312 107.087C160.312 107.087 162.284 111.583 159.397 110.67C156.51 109.757 148.623 103.504 142.216 103.504C135.809 103.504 131.232 103.433 126.726 105.12C122.219 106.806 108.632 113.831 104.618 114.676C104.618 114.676 81.3138 124.302 63.8488 106.596C63.8488 106.596 57.0867 98.7273 55.1176 93.6701C55.1176 93.6701 54.3447 90.4384 57.4363 91.7709Z" stroke="#231F20" stroke-width="0.22" stroke-miterlimit="2.61"/>
<path fill-rule="evenodd" clip-rule="evenodd" d="M90.3944 119.455C90.3944 119.455 102.575 118.262 110.675 115.098C118.773 111.937 134.334 106.245 142.079 107.793C149.825 109.338 148.981 111.024 148.981 111.024C148.981 111.024 149.123 111.866 147.714 111.586C146.304 111.305 132.646 109.409 119.125 115.24C105.604 121.071 98.4236 122.967 90.8177 121.422C90.8177 121.422 88.4225 120.439 90.3944 119.455Z" fill="#39B54A"/>
<path d="M142.595 150.417V148.788H143.83C144.33 148.788 144.663 148.684 144.838 148.485C145.012 148.286 145.097 147.856 145.097 147.193V131.45C145.097 130.779 145.01 130.338 144.838 130.134C144.663 129.929 144.33 129.826 143.83 129.826H142.595V128.229H158.75L158.949 136.218H157.734C157.299 133.856 156.598 132.196 155.636 131.234C154.669 130.278 153.225 129.796 151.297 129.796C150.483 129.796 149.98 129.902 149.781 130.114C149.581 130.324 149.483 130.771 149.483 131.452V138.125H149.835C150.906 138.125 151.706 137.807 152.231 137.172C152.76 136.537 153.132 135.431 153.35 133.853H154.59V144.025H153.35C153.132 142.469 152.76 141.371 152.231 140.736C151.706 140.101 150.906 139.782 149.835 139.782H149.483V147.193C149.483 147.875 149.59 148.324 149.805 148.54C150.016 148.755 150.54 148.861 151.37 148.861C153.473 148.861 155.046 148.338 156.087 147.305C157.133 146.27 157.895 144.488 158.378 141.965L159.618 142.082L159.293 150.414H142.598L142.595 150.417ZM130.188 131.507V138.125C130.325 138.147 130.464 138.161 130.609 138.172C130.756 138.183 130.942 138.188 131.18 138.188C132.881 138.188 134.061 137.869 134.722 137.24C135.383 136.61 135.713 135.518 135.713 133.973C135.713 132.428 135.432 131.382 134.875 130.76C134.312 130.142 133.329 129.828 131.931 129.828C131.155 129.828 130.672 129.926 130.478 130.12C130.284 130.313 130.188 130.779 130.188 131.507ZM130.188 146.58C130.188 147.523 130.292 148.117 130.502 148.373C130.713 148.629 131.278 148.758 132.196 148.758C133.714 148.758 134.79 148.409 135.429 147.708C136.066 147.008 136.382 145.839 136.382 144.204C136.382 143.461 136.287 142.801 136.093 142.223C135.899 141.64 135.615 141.164 135.246 140.796C134.916 140.463 134.495 140.226 133.99 140.09C133.487 139.951 132.627 139.88 131.409 139.88H131.057C130.822 139.88 130.644 139.88 130.524 139.886C130.404 139.891 130.289 139.91 130.186 139.943V146.586L130.188 146.58ZM123.2 150.417V148.788H124.53C125.029 148.788 125.368 148.684 125.54 148.485C125.715 148.286 125.8 147.856 125.8 147.193V131.444C125.8 130.779 125.712 130.338 125.54 130.134C125.368 129.929 125.029 129.826 124.53 129.826H123.2V128.229H133.799C135.847 128.229 137.412 128.684 138.493 129.591C139.58 130.504 140.121 131.815 140.121 133.52C140.121 135.033 139.703 136.221 138.87 137.09C138.037 137.962 136.776 138.518 135.096 138.771C136.942 138.929 138.387 139.518 139.427 140.542C140.468 141.561 140.99 142.888 140.99 144.518C140.99 146.45 140.351 147.918 139.072 148.918C137.792 149.918 135.921 150.42 133.46 150.42H123.2V150.417ZM112.051 128.229V129.826H110.817C110.317 129.826 109.984 129.932 109.809 130.144C109.634 130.354 109.55 130.79 109.55 131.444V142.67C109.55 144.725 109.897 146.215 110.588 147.142C111.279 148.074 112.379 148.54 113.895 148.54C114.556 148.54 115.162 148.428 115.719 148.202C116.276 147.976 116.738 147.659 117.112 147.248C117.565 146.747 117.885 146.112 118.071 145.343C118.256 144.57 118.347 143.253 118.347 141.379V133.322C118.347 131.981 118.155 131.063 117.773 130.567C117.388 130.071 116.719 129.823 115.766 129.823H115.596V128.226H122.41V129.823C121.501 129.926 120.87 130.213 120.515 130.695C120.16 131.177 119.982 132.052 119.982 133.322V141.649C119.982 143.411 119.917 144.676 119.783 145.455C119.646 146.229 119.42 146.916 119.098 147.515C118.483 148.687 117.636 149.553 116.555 150.123C115.476 150.687 114.122 150.967 112.499 150.967C110.071 150.967 108.239 150.343 106.999 149.093C105.759 147.842 105.142 145.989 105.142 143.526V131.444C105.142 130.788 105.055 130.354 104.882 130.144C104.708 129.935 104.374 129.826 103.875 129.826H102.616V128.229H112.057H112.051ZM100.83 142.888C100.395 145.515 99.505 147.529 98.1614 148.916C96.8204 150.302 95.0862 151 92.9669 151C91.9018 151 90.905 150.82 89.9764 150.463C89.0506 150.101 88.2094 149.567 87.4502 148.856C86.2731 147.733 85.3801 146.368 84.7711 144.744C84.1648 143.125 83.8589 141.316 83.8589 139.324C83.8589 137.771 84.0583 136.324 84.457 134.97C84.8585 133.624 85.4484 132.395 86.2294 131.292C87.0924 130.093 88.092 129.202 89.2281 128.613C90.3588 128.03 91.6615 127.738 93.1308 127.738C94.0266 127.738 94.8541 127.877 95.616 128.158C96.3807 128.439 97.0853 128.875 97.7381 129.455L99.1172 127.861H100.158L100.51 136.809L99.2511 136.926C98.7212 134.417 97.9675 132.518 96.9952 131.232C96.0257 129.946 94.8486 129.305 93.4722 129.305C91.8499 129.305 90.6674 130.079 89.9245 131.629C89.1844 133.183 88.813 135.681 88.813 139.128C88.813 142.575 89.2008 145.177 89.9737 146.681C90.7493 148.188 92.0302 148.94 93.819 148.94C95.2064 148.94 96.3835 148.376 97.353 147.245C98.3198 146.117 99.0326 144.48 99.4914 142.332L100.83 142.886V142.888ZM75.8761 144.61V140.954H81.8215V144.61H75.8761ZM59.5062 150.785L59.2795 141.872H60.544C61.254 144.305 62.1826 146.153 63.3406 147.414C64.4931 148.679 65.8231 149.308 67.3306 149.308C68.4121 149.308 69.2587 148.986 69.8787 148.346C70.4932 147.706 70.8045 146.831 70.8045 145.719C70.8045 145.229 70.7226 144.777 70.556 144.368C70.3921 143.959 70.1682 143.624 69.8841 143.373C69.4663 143.014 68.434 142.594 66.7899 142.114C66.1836 141.935 65.7111 141.793 65.3725 141.679C63.1603 141.003 61.5736 140.112 60.6286 139.011C59.6837 137.916 59.2085 136.439 59.2085 134.591C59.2085 132.589 59.8039 130.94 60.9919 129.632C62.1799 128.327 63.7038 127.676 65.5664 127.676C66.4048 127.676 67.205 127.815 67.9751 128.085C68.7398 128.362 69.4827 128.777 70.2009 129.335L71.449 127.828H72.536L72.8364 135.94H71.673C70.7936 133.578 69.8732 131.875 68.9146 130.834C67.9533 129.793 66.8336 129.273 65.55 129.273C64.5013 129.273 63.6874 129.564 63.1057 130.153C62.524 130.736 62.2345 131.55 62.2345 132.591C62.2345 134.104 63.6437 135.245 66.454 136.014C66.9783 136.158 67.3743 136.264 67.6529 136.346C68.9911 136.725 69.9606 137.085 70.556 137.428C71.1541 137.766 71.6675 138.196 72.0963 138.719C72.5961 139.319 72.9811 140.057 73.2515 140.937C73.5192 141.817 73.6557 142.777 73.6557 143.815C73.6557 145.997 73.074 147.728 71.9133 149.014C70.7526 150.3 69.1795 150.94 67.1941 150.94C66.1453 150.94 65.2086 150.782 64.3811 150.463C63.5563 150.142 62.7752 149.638 62.0406 148.951L60.5795 150.785H59.5144H59.5062Z" fill="#2E3192"/>
</g>
<defs>
<filter id="filter0_d_418_122" x="0" y="0" width="201" height="201" filterUnits="userSpaceOnUse" color-interpolation-filters="sRGB">
<feFlood flood-opacity="0" result="BackgroundImageFix"/>
<feColorMatrix in="SourceAlpha" type="matrix" values="0 0 0 0 0 0 0 0 0 0 0 0 0 0 0 0 0 0 127 0" result="hardAlpha"/>
<feOffset dy="4"/>
<feGaussianBlur stdDeviation="2"/>
<feComposite in2="hardAlpha" operator="out"/>
<feColorMatrix type="matrix" values="0 0 0 0 0 0 0 0 0 0 0 0 0 0 0 0 0 0 0.25 0"/>
<feBlend mode="normal" in2="BackgroundImageFix" result="effect1_dropShadow_418_122"/>
<feBlend mode="normal" in="SourceGraphic" in2="effect1_dropShadow_418_122" result="shape"/>
</filter>
<clipPath id="clip0_418_122">
<rect width="106" height="109" fill="white" transform="translate(55 42)"/>
</clipPath>
</defs>
</svg>
